<svg width="20" height="21" viewBox="0 0 20 21" fill="none" xmlns="http://www.w3.org/2000/svg">
<path d="M5.77919 7.125C6.4554 7.125 7.10392 6.82868 7.58207 6.30124C8.06022 5.77379 8.32884 5.05842 8.32884 4.3125C8.32884 3.56658 8.06022 2.85121 7.58207 2.32376C7.10392 1.79632 6.4554 1.5 5.77919 1.5C5.10299 1.5 4.45447 1.79632 3.97632 2.32376C3.49817 2.85121 3.22955 3.56658 3.22955 4.3125C3.22955 5.05842 3.49817 5.77379 3.97632 6.30124C4.45447 6.82868 5.10299 7.125 5.77919 7.125ZM1.3598 9.7365C1.3598 8.91525 1.96288 8.25 2.70738 8.25H6.51485C6.21688 9.07928 6.21179 10.0017 6.50058 10.8349C6.78938 11.6681 7.35105 12.3515 8.07456 12.75H6.44754C6.04568 12.7497 5.65282 12.8813 5.31892 13.128C4.98502 13.3746 4.72515 13.7252 4.57236 14.1353C3.20915 13.857 2.3919 13.1063 1.9248 12.2677C1.3598 11.2575 1.3598 10.2135 1.3598 10.0335V9.7365ZM10.9621 12.75H12.5905C13.437 12.75 14.1624 13.3223 14.4657 14.1353C15.8289 13.857 16.6461 13.1063 17.1132 12.2677C17.6776 11.2568 17.6776 10.2127 17.6776 10.0328V9.7365C17.6777 9.54123 17.643 9.34785 17.5753 9.16741C17.5077 8.98697 17.4084 8.82302 17.2833 8.68495C17.1581 8.54687 17.0095 8.43739 16.8459 8.36275C16.6823 8.28812 16.507 8.2498 16.33 8.25H12.5225C12.8205 9.07928 12.8256 10.0017 12.5368 10.8349C12.248 11.6681 11.6863 12.3515 10.9628 12.75M15.8078 4.3125C15.8078 5.05842 15.5392 5.77379 15.061 6.30124C14.5829 6.82868 13.9344 7.125 13.2582 7.125C12.582 7.125 11.9334 6.82868 11.4553 6.30124C10.9771 5.77379 10.7085 5.05842 10.7085 4.3125C10.7085 3.56658 10.9771 2.85121 11.4553 2.32376C11.9334 1.79632 12.582 1.5 13.2582 1.5C13.9344 1.5 14.5829 1.79632 15.061 2.32376C15.5392 2.85121 15.8078 3.56658 15.8078 4.3125ZM5.09929 14.9865C5.09929 14.1652 5.70237 13.5 6.44686 13.5H12.5905C13.335 13.5 13.9381 14.1652 13.9381 14.9865V15.2828C13.9381 15.4628 13.9381 16.5068 13.3738 17.5177C12.7822 18.5798 11.6305 19.5 9.51868 19.5C7.40689 19.5 6.25513 18.579 5.66361 17.5185C5.09929 16.5068 5.09929 15.4635 5.09929 15.2828V14.9865ZM9.51868 12.375C10.1949 12.375 10.8434 12.0787 11.3216 11.5512C11.7997 11.0238 12.0683 10.3084 12.0683 9.5625C12.0683 8.81658 11.7997 8.10121 11.3216 7.57376C10.8434 7.04632 10.1949 6.75 9.51868 6.75C8.84247 6.75 8.19396 7.04632 7.71581 7.57376C7.23765 8.10121 6.96903 8.81658 6.96903 9.5625C6.96903 10.3084 7.23765 11.0238 7.71581 11.5512C8.19396 12.0787 8.84247 12.375 9.51868 12.375Z" fill="#77838F"/>
</svg>
