<svg width="21" height="21" viewBox="0 0 21 21" fill="none" xmlns="http://www.w3.org/2000/svg">
<path d="M19.4106 10.3564L10.9635 1.91542C10.9026 1.85448 10.8304 1.80613 10.7509 1.77314C10.6713 1.74015 10.5861 1.72318 10.5 1.72318C10.4139 1.72318 10.3286 1.74015 10.2491 1.77314C10.1696 1.80613 10.0973 1.85448 10.0365 1.91542L1.58934 10.3564C1.34325 10.6025 1.2038 10.9368 1.2038 11.2854C1.2038 12.0094 1.79237 12.5979 2.5163 12.5979H3.40634V18.6211C3.40634 18.9841 3.6996 19.2773 4.06259 19.2773H9.18749V14.6836H11.4844V19.2773H16.9374C17.3004 19.2773 17.5936 18.9841 17.5936 18.6211V12.5979H18.4837C18.8323 12.5979 19.1666 12.4605 19.4127 12.2124C19.9233 11.6997 19.9233 10.8691 19.4106 10.3564Z" fill="#009688"/>
</svg>
