<svg width="20" height="21" viewBox="0 0 20 21" fill="none" xmlns="http://www.w3.org/2000/svg">
<path d="M7.93222 14V13.125H2.38758L2.37965 16.625C2.37965 17.5962 3.08562 18.375 3.9661 18.375H15.0712C15.9517 18.375 16.6577 17.5962 16.6577 16.625V13.125H11.1051V14H7.93222ZM15.8645 6.125H12.6836V4.375L11.0972 2.625H7.92429L6.33784 4.375V6.125H3.17287C2.30033 6.125 1.58643 6.9125 1.58643 7.875V10.5C1.58643 11.4712 2.2924 12.25 3.17287 12.25H7.93222V10.5H11.1051V12.25H15.8645C16.737 12.25 17.4509 11.4625 17.4509 10.5V7.875C17.4509 6.9125 16.737 6.125 15.8645 6.125ZM11.1051 6.125H7.93222V4.375H11.1051V6.125Z" fill="#77838F"/>
</svg>
