<svg width="21" height="21" viewBox="0 0 21 21" fill="none" xmlns="http://www.w3.org/2000/svg">
<path d="M18.375 6.125C18.6071 6.125 18.8296 6.21719 18.9937 6.38128C19.1578 6.54538 19.25 6.76794 19.25 7C19.25 7.23206 19.1578 7.45462 18.9937 7.61872C18.8296 7.78281 18.6071 7.875 18.375 7.875V16.625C18.6071 16.625 18.8296 16.7172 18.9937 16.8813C19.1578 17.0454 19.25 17.2679 19.25 17.5C19.25 17.7321 19.1578 17.9546 18.9937 18.1187C18.8296 18.2828 18.6071 18.375 18.375 18.375H2.625C2.39294 18.375 2.17038 18.2828 2.00628 18.1187C1.84219 17.9546 1.75 17.7321 1.75 17.5C1.75 17.2679 1.84219 17.0454 2.00628 16.8813C2.17038 16.7172 2.39294 16.625 2.625 16.625V7.875C2.39294 7.875 2.17038 7.78281 2.00628 7.61872C1.84219 7.45462 1.75 7.23206 1.75 7C1.75 6.76794 1.84219 6.54538 2.00628 6.38128C2.17038 6.21719 2.39294 6.125 2.625 6.125H18.375ZM6.125 9.625C5.89294 9.625 5.67038 9.71719 5.50628 9.88128C5.34219 10.0454 5.25 10.2679 5.25 10.5V16.625H7V10.5C7 10.2679 6.90781 10.0454 6.74372 9.88128C6.57962 9.71719 6.35706 9.625 6.125 9.625ZM10.5 9.625C10.2679 9.625 10.0454 9.71719 9.88128 9.88128C9.71719 10.0454 9.625 10.2679 9.625 10.5V16.625H11.375V10.5C11.375 10.2679 11.2828 10.0454 11.1187 9.88128C10.9546 9.71719 10.7321 9.625 10.5 9.625ZM14.875 9.625C14.6429 9.625 14.4204 9.71719 14.2563 9.88128C14.0922 10.0454 14 10.2679 14 10.5V16.625H15.75V10.5C15.75 10.2679 15.6578 10.0454 15.4937 9.88128C15.3296 9.71719 15.1071 9.625 14.875 9.625ZM15.75 3.5C15.9821 3.5 16.2046 3.59219 16.3687 3.75628C16.5328 3.92038 16.625 4.14294 16.625 4.375C16.625 4.60706 16.5328 4.82962 16.3687 4.99372C16.2046 5.15781 15.9821 5.25 15.75 5.25H5.25C5.01794 5.25 4.79538 5.15781 4.63128 4.99372C4.46719 4.82962 4.375 4.60706 4.375 4.375C4.375 4.14294 4.46719 3.92038 4.63128 3.75628C4.79538 3.59219 5.01794 3.5 5.25 3.5H15.75Z" fill="#77838F"/>
</svg>
