<svg width="21" height="21" viewBox="0 0 21 21" fill="none" xmlns="http://www.w3.org/2000/svg">
<path d="M9.625 14.875C9.52292 14.875 9.43542 14.8458 9.3625 14.7875C9.28958 14.7292 9.23854 14.6563 9.20937 14.5688C9.00521 13.9563 8.75729 13.4458 8.46563 13.0375C8.17396 12.6292 7.88229 12.2354 7.59063 11.8563C7.29896 11.4771 7.05454 11.0833 6.85738 10.675C6.66021 10.2667 6.56192 9.77083 6.5625 9.1875C6.5625 8.34167 6.86146 7.61979 7.45937 7.02188C8.05729 6.42396 8.77917 6.125 9.625 6.125C10.4708 6.125 11.1927 6.42396 11.7906 7.02188C12.3885 7.61979 12.6875 8.34167 12.6875 9.1875C12.6875 9.77083 12.5889 10.2667 12.3917 10.675C12.1946 11.0833 11.9505 11.4771 11.6594 11.8563C11.3683 12.2354 11.0766 12.6292 10.7844 13.0375C10.4921 13.4458 10.2442 13.9563 10.0406 14.5688C10.0115 14.6563 9.96042 14.7292 9.8875 14.7875C9.81458 14.8458 9.72708 14.875 9.625 14.875ZM9.625 10.2813C9.93125 10.2813 10.1902 10.1754 10.402 9.96363C10.6137 9.75188 10.7193 9.49317 10.7188 9.1875C10.7182 8.88183 10.6123 8.62284 10.4011 8.4105C10.19 8.19817 9.93125 8.09258 9.625 8.09375C9.31875 8.09492 9.05975 8.20079 8.848 8.41138C8.63625 8.62196 8.53067 8.88067 8.53125 9.1875C8.53183 9.49433 8.63771 9.75333 8.84888 9.9645C9.06004 10.1757 9.31875 10.2813 9.625 10.2813ZM9.625 18.375C7.4375 18.375 5.57812 17.6094 4.04688 16.0781C2.51562 14.5469 1.75 12.6875 1.75 10.5C1.75 9.40625 1.95796 8.38192 2.37388 7.427C2.78979 6.47208 3.35096 5.64083 4.05737 4.93325C4.76379 4.22567 5.59504 3.66421 6.55113 3.24888C7.50721 2.83354 8.53183 2.62558 9.625 2.625C10.7182 2.62442 11.7428 2.83238 12.6989 3.24888C13.655 3.66538 14.4862 4.22654 15.1926 4.93238C15.899 5.63821 16.4605 6.46946 16.877 7.42613C17.2935 8.38279 17.5012 9.40742 17.5 10.5V10.675L18.6594 9.49375L19.9062 10.7188L16.625 14L13.3438 10.7188L14.5906 9.49375L15.75 10.6531V10.5C15.75 8.80833 15.1521 7.36458 13.9563 6.16875C12.7604 4.97292 11.3167 4.375 9.625 4.375C7.93333 4.375 6.48958 4.97292 5.29375 6.16875C4.09792 7.36458 3.5 8.80833 3.5 10.5C3.51458 12.1917 4.116 13.6354 5.30425 14.8313C6.4925 16.0271 7.93275 16.625 9.625 16.625C10.4563 16.625 11.2365 16.4684 11.9656 16.1551C12.6948 15.8419 13.3365 15.4152 13.8906 14.875L15.1375 16.1219C14.4229 16.8219 13.5952 17.3725 12.6543 17.7739C11.7133 18.1752 10.7036 18.3756 9.625 18.375Z" fill="#77838F"/>
</svg>
